<svg xmlns="http://www.w3.org/2000/svg" viewBox="0 0 48 48">
  <path d="M24 2 A22 22 0 0 1 39.6 8.4 L33.5 14.5 A13.5 13.5 0 0 0 24 10.5 Z" fill="#C65B4E"/>
  <path d="M39.6 8.4 A22 22 0 0 1 46 24 L37.5 24 A13.5 13.5 0 0 0 33.5 14.5 Z" fill="#D98E3B"/>
  <path d="M46 24 A22 22 0 0 1 39.6 39.6 L33.5 33.5 A13.5 13.5 0 0 0 37.5 24 Z" fill="#D9B44A"/>
  <path d="M39.6 39.6 A22 22 0 0 1 24 46 L24 37.5 A13.5 13.5 0 0 0 33.5 33.5 Z" fill="#7FA05A"/>
  <path d="M24 46 A22 22 0 0 1 8.4 39.6 L14.5 33.5 A13.5 13.5 0 0 0 24 37.5 Z" fill="#3F8E7B"/>
  <path d="M8.4 39.6 A22 22 0 0 1 2 24 L10.5 24 A13.5 13.5 0 0 0 14.5 33.5 Z" fill="#4E7CA8"/>
  <path d="M2 24 A22 22 0 0 1 8.4 8.4 L14.5 14.5 A13.5 13.5 0 0 0 10.5 24 Z" fill="#7A63A0"/>
  <path d="M8.4 8.4 A22 22 0 0 1 24 2 L24 10.5 A13.5 13.5 0 0 0 14.5 14.5 Z" fill="#B75C82"/>
  <circle cx="24" cy="24" r="13.5" fill="#FDFCFA"/>
  <path d="M24 15 L32.2 23.2 L29.6 23.2 L29.6 31.5 L18.4 31.5 L18.4 23.2 L15.8 23.2 Z" fill="#2B2A27"/>
  <rect x="22.4" y="26" width="3.2" height="5.5" fill="#FDFCFA"/>
</svg>
